<svg xmlns="http://www.w3.org/2000/svg" viewBox="0 0 800 800" role="img" aria-label="Pink purple mixed crystal bracelet">
  <defs>
    <linearGradient id="bg" x1="0" x2="1" y1="0" y2="1">
      <stop offset="0" stop-color="#f7efe9"/>
      <stop offset=".55" stop-color="#eee7ef"/>
      <stop offset="1" stop-color="#e2eadf"/>
    </linearGradient>
    <radialGradient id="pink" cx=".34" cy=".28" r=".7">
      <stop offset="0" stop-color="#fff4f7"/>
      <stop offset=".58" stop-color="#d989aa"/>
      <stop offset="1" stop-color="#8d4c76"/>
    </radialGradient>
    <radialGradient id="purple" cx=".34" cy=".28" r=".7">
      <stop offset="0" stop-color="#f8f4ff"/>
      <stop offset=".6" stop-color="#8e7cc3"/>
      <stop offset="1" stop-color="#514072"/>
    </radialGradient>
    <radialGradient id="clear" cx=".32" cy=".25" r=".72">
      <stop offset="0" stop-color="#ffffff"/>
      <stop offset=".52" stop-color="#dfeaf0"/>
      <stop offset="1" stop-color="#a3b6c2"/>
    </radialGradient>
  </defs>
  <rect width="800" height="800" fill="url(#bg)"/>
  <ellipse cx="400" cy="595" rx="258" ry="54" fill="#182126" opacity=".11"/>
  <path d="M196 414c-12-111 96-196 226-177 128 19 219 123 184 232-31 96-146 143-269 106-85-25-133-84-141-161Z" fill="none" stroke="#2e3338" stroke-width="22" stroke-linecap="round" opacity=".82"/>
  <g stroke="#fff" stroke-width="6" stroke-opacity=".62">
    <circle cx="199" cy="408" r="50" fill="url(#pink)"/>
    <circle cx="247" cy="309" r="52" fill="url(#clear)"/>
    <circle cx="351" cy="254" r="53" fill="url(#purple)"/>
    <circle cx="465" cy="267" r="51" fill="url(#pink)"/>
    <circle cx="558" cy="344" r="52" fill="url(#clear)"/>
    <circle cx="602" cy="450" r="50" fill="url(#purple)"/>
    <circle cx="544" cy="544" r="53" fill="url(#pink)"/>
    <circle cx="427" cy="585" r="51" fill="url(#clear)"/>
    <circle cx="314" cy="558" r="52" fill="url(#purple)"/>
  </g>
  <circle cx="395" cy="421" r="54" fill="#d8b7c7" opacity=".55"/>
</svg>
