<svg xmlns="http://www.w3.org/2000/svg" viewBox="0 0 800 800" role="img" aria-label="Clear quartz bracelet">
  <defs>
    <linearGradient id="bg" x1="0" x2="1" y1="0" y2="1">
      <stop offset="0" stop-color="#f5f7f5"/>
      <stop offset="1" stop-color="#dce8ec"/>
    </linearGradient>
    <radialGradient id="quartz" cx=".3" cy=".24" r=".76">
      <stop offset="0" stop-color="#ffffff"/>
      <stop offset=".42" stop-color="#f3fbff"/>
      <stop offset=".72" stop-color="#c5d8df"/>
      <stop offset="1" stop-color="#7f98a4"/>
    </radialGradient>
  </defs>
  <rect width="800" height="800" fill="url(#bg)"/>
  <ellipse cx="400" cy="594" rx="248" ry="50" fill="#162024" opacity=".1"/>
  <path d="M200 412c-8-117 101-199 227-176 122 23 207 124 173 229-31 96-144 143-263 108-84-25-132-85-137-161Z" fill="none" stroke="#34424a" stroke-width="20" opacity=".58"/>
  <g fill="url(#quartz)" stroke="#fff" stroke-width="8" stroke-opacity=".7">
    <circle cx="204" cy="408" r="49"/>
    <circle cx="252" cy="313" r="50"/>
    <circle cx="352" cy="260" r="50"/>
    <circle cx="462" cy="269" r="50"/>
    <circle cx="554" cy="340" r="50"/>
    <circle cx="600" cy="446" r="50"/>
    <circle cx="548" cy="540" r="50"/>
    <circle cx="435" cy="584" r="50"/>
    <circle cx="319" cy="560" r="50"/>
  </g>
  <g opacity=".35" fill="none" stroke="#ffffff" stroke-width="5">
    <path d="M248 304l38 28M462 264l35 31M546 536l-42 24"/>
  </g>
</svg>
