<svg xmlns="http://www.w3.org/2000/svg" viewBox="0 0 800 800" role="img" aria-label="White bodhi seed bracelet">
  <defs>
    <linearGradient id="bg" x1="0" x2="1" y1="0" y2="1">
      <stop offset="0" stop-color="#f7f4ec"/>
      <stop offset="1" stop-color="#e6decf"/>
    </linearGradient>
    <radialGradient id="bodhi" cx=".34" cy=".26" r=".72">
      <stop offset="0" stop-color="#fffef7"/>
      <stop offset=".6" stop-color="#e9dfc3"/>
      <stop offset="1" stop-color="#b9a97e"/>
    </radialGradient>
  </defs>
  <rect width="800" height="800" fill="url(#bg)"/>
  <ellipse cx="400" cy="594" rx="252" ry="52" fill="#1c1710" opacity=".1"/>
  <path d="M201 412c-10-114 99-198 225-177 124 21 211 123 177 230-30 95-143 143-264 108-85-25-133-85-138-161Z" fill="none" stroke="#b7a982" stroke-width="20"/>
  <g fill="url(#bodhi)" stroke="#fffaf0" stroke-width="7" stroke-opacity=".72">
    <circle cx="203" cy="408" r="50"/>
    <circle cx="252" cy="311" r="50"/>
    <circle cx="353" cy="258" r="50"/>
    <circle cx="464" cy="269" r="50"/>
    <circle cx="556" cy="342" r="50"/>
    <circle cx="600" cy="449" r="50"/>
    <circle cx="546" cy="542" r="50"/>
    <circle cx="432" cy="584" r="50"/>
    <circle cx="318" cy="558" r="50"/>
  </g>
  <g fill="#c6b487" opacity=".35">
    <circle cx="353" cy="258" r="8"/>
    <circle cx="556" cy="342" r="8"/>
    <circle cx="318" cy="558" r="8"/>
  </g>
</svg>
