<svg xmlns="http://www.w3.org/2000/svg" viewBox="0 0 800 800" role="img" aria-label="Wood bead bracelet with accent stone">
  <defs>
    <linearGradient id="bg" x1="0" x2="1" y1="0" y2="1">
      <stop offset="0" stop-color="#f4efe5"/>
      <stop offset="1" stop-color="#dad6c8"/>
    </linearGradient>
    <radialGradient id="wood" cx=".32" cy=".25" r=".74">
      <stop offset="0" stop-color="#d5ab76"/>
      <stop offset=".55" stop-color="#8b5730"/>
      <stop offset="1" stop-color="#3c2416"/>
    </radialGradient>
    <radialGradient id="accent" cx=".34" cy=".26" r=".74">
      <stop offset="0" stop-color="#fff6f6"/>
      <stop offset=".56" stop-color="#c97575"/>
      <stop offset="1" stop-color="#6b3a42"/>
    </radialGradient>
  </defs>
  <rect width="800" height="800" fill="url(#bg)"/>
  <ellipse cx="400" cy="596" rx="258" ry="54" fill="#22160f" opacity=".12"/>
  <path d="M199 412c-11-115 100-201 229-178 124 22 211 126 175 232-31 95-145 142-265 106-85-25-133-84-139-160Z" fill="none" stroke="#5a3821" stroke-width="21"/>
  <g stroke="#e0c29d" stroke-width="5" stroke-opacity=".55">
    <circle cx="202" cy="407" r="49" fill="url(#wood)"/>
    <circle cx="251" cy="310" r="49" fill="url(#wood)"/>
    <circle cx="353" cy="257" r="49" fill="url(#wood)"/>
    <circle cx="464" cy="269" r="49" fill="url(#wood)"/>
    <circle cx="556" cy="342" r="49" fill="url(#wood)"/>
    <circle cx="600" cy="449" r="49" fill="url(#wood)"/>
    <circle cx="546" cy="542" r="49" fill="url(#wood)"/>
    <circle cx="432" cy="584" r="49" fill="url(#wood)"/>
    <circle cx="318" cy="558" r="49" fill="url(#wood)"/>
  </g>
  <circle cx="399" cy="421" r="64" fill="url(#accent)" stroke="#fff1ee" stroke-width="8"/>
</svg>
