<svg xmlns="http://www.w3.org/2000/svg" viewBox="0 0 800 800" role="img" aria-label="Soft green jade style bracelet">
  <defs>
    <linearGradient id="bg" x1="0" x2="1" y1="0" y2="1">
      <stop offset="0" stop-color="#f3f0e7"/>
      <stop offset="1" stop-color="#dfe8dc"/>
    </linearGradient>
    <radialGradient id="jade" cx=".34" cy=".26" r=".75">
      <stop offset="0" stop-color="#fbfff8"/>
      <stop offset=".55" stop-color="#a8c8a6"/>
      <stop offset="1" stop-color="#54775b"/>
    </radialGradient>
  </defs>
  <rect width="800" height="800" fill="url(#bg)"/>
  <ellipse cx="400" cy="595" rx="257" ry="54" fill="#172018" opacity=".11"/>
  <path d="M200 411c-10-116 101-201 229-178 125 22 211 126 175 233-31 95-144 142-265 106-86-25-133-84-139-161Z" fill="none" stroke="#4d6750" stroke-width="21"/>
  <g fill="url(#jade)" stroke="#eff8ea" stroke-width="6" stroke-opacity=".62">
    <circle cx="203" cy="407" r="51"/>
    <circle cx="253" cy="310" r="51"/>
    <circle cx="354" cy="257" r="51"/>
    <circle cx="464" cy="269" r="51"/>
    <circle cx="556" cy="342" r="51"/>
    <circle cx="600" cy="449" r="51"/>
    <circle cx="546" cy="542" r="51"/>
    <circle cx="431" cy="584" r="51"/>
    <circle cx="318" cy="558" r="51"/>
  </g>
  <path d="M262 322c88 31 182 23 281-17" fill="none" stroke="#ffffff" stroke-width="8" opacity=".28"/>
</svg>
