<svg xmlns="http://www.w3.org/2000/svg" viewBox="0 0 800 800" role="img" aria-label="Coconut shell bead bracelet">
  <defs>
    <linearGradient id="bg" x1="0" x2="1" y1="0" y2="1">
      <stop offset="0" stop-color="#f5efe5"/>
      <stop offset="1" stop-color="#ded2c1"/>
    </linearGradient>
    <radialGradient id="wood" cx=".32" cy=".25" r=".76">
      <stop offset="0" stop-color="#a8794e"/>
      <stop offset=".55" stop-color="#4f3020"/>
      <stop offset="1" stop-color="#1c100b"/>
    </radialGradient>
  </defs>
  <rect width="800" height="800" fill="url(#bg)"/>
  <ellipse cx="400" cy="595" rx="258" ry="53" fill="#23160f" opacity=".12"/>
  <path d="M199 412c-10-115 100-199 228-177 124 22 211 126 176 232-32 96-145 142-265 106-85-25-133-84-139-161Z" fill="none" stroke="#3e2619" stroke-width="22"/>
  <g fill="url(#wood)" stroke="#8f6644" stroke-width="5">
    <circle cx="202" cy="407" r="49"/>
    <circle cx="251" cy="310" r="49"/>
    <circle cx="353" cy="257" r="49"/>
    <circle cx="464" cy="269" r="49"/>
    <circle cx="556" cy="342" r="49"/>
    <circle cx="600" cy="449" r="49"/>
    <circle cx="546" cy="542" r="49"/>
    <circle cx="432" cy="584" r="49"/>
    <circle cx="318" cy="558" r="49"/>
  </g>
  <g fill="none" stroke="#c39b73" stroke-width="3" opacity=".55">
    <path d="M172 396c31 15 56 17 84 2M326 245c24 22 54 30 89 23M516 333c25 19 58 25 92 12M285 544c35 13 68 12 102-4"/>
  </g>
</svg>
