<svg xmlns="http://www.w3.org/2000/svg" viewBox="0 0 800 800" role="img" aria-label="朱砂红绳手作">
  <defs>
    <linearGradient id="bg" x1="0" x2="1" y1="0" y2="1">
      <stop offset="0" stop-color="#f8efe4"/>
      <stop offset="1" stop-color="#e6ded2"/>
    </linearGradient>
    <radialGradient id="red" cx=".35" cy=".28" r=".72">
      <stop offset="0" stop-color="#e7917d"/>
      <stop offset=".56" stop-color="#a74437"/>
      <stop offset="1" stop-color="#68281f"/>
    </radialGradient>
  </defs>
  <rect width="800" height="800" fill="url(#bg)"/>
  <ellipse cx="400" cy="596" rx="258" ry="52" fill="#1e2526" opacity=".11"/>
  <path d="M183 401c12-125 151-195 284-143 119 47 182 164 126 264-47 84-177 111-291 61-84-37-128-101-119-182Z" fill="none" stroke="#78271f" stroke-width="20"/>
  <g fill="url(#red)" stroke="#f0b09c" stroke-width="5" stroke-opacity=".5">
    <circle cx="198" cy="404" r="48"/>
    <circle cx="248" cy="310" r="48"/>
    <circle cx="351" cy="257" r="48"/>
    <circle cx="462" cy="273" r="48"/>
    <circle cx="552" cy="344" r="48"/>
    <circle cx="600" cy="448" r="48"/>
    <circle cx="548" cy="545" r="48"/>
    <circle cx="438" cy="590" r="48"/>
    <circle cx="324" cy="568" r="48"/>
  </g>
  <path d="M354 404c66-46 124-43 171 9" fill="none" stroke="#c09344" stroke-width="16" stroke-linecap="round"/>
  <circle cx="338" cy="416" r="24" fill="#c09344"/>
  <circle cx="540" cy="430" r="24" fill="#c09344"/>
</svg>
